# The units used in this file are centimeters.
v -45.000000 -7.500000 6.000000
v -42.000000 -7.500000 6.000000
v -39.000000 -7.500000 6.000000
v -36.000000 -7.500000 6.000000
v -33.000000 -7.500000 6.000000
v -30.000000 -7.500000 6.000000
v -27.000000 -7.500000 6.000000
v -24.000000 -7.500000 6.000000
v -45.000000 -7.500000 3.000000
v -42.000000 -7.500000 3.000000
v -39.000000 -7.500000 3.000000
v -36.000000 -7.500000 3.000000
v -33.000000 -7.500000 3.000000
v -30.000000 -7.500000 3.000000
v -27.000000 -7.500000 3.000000
v -24.000000 -7.500000 3.000000
v -45.000000 -7.500000 0.000000
v -42.000000 -7.500000 0.000000
v -39.000000 -7.500000 0.000000
v -36.000000 -7.500000 0.000000
v -33.000000 -7.500000 0.000000
v -30.000000 -7.500000 0.000000
v -27.000000 -7.500000 0.000000
v -24.000000 -7.500000 0.000000
v -45.000000 -7.500000 -3.000000
v -42.000000 -7.500000 -3.000000
v -39.000000 -7.500000 -3.000000
v -36.000000 -7.500000 -3.000000
v -33.000000 -7.500000 -3.000000
v -30.000000 -7.500000 -3.000000
v -27.000000 -7.500000 -3.000000
v -24.000000 -7.500000 -3.000000
v -45.000000 -7.500000 -6.000000
v -42.000000 -7.500000 -6.000000
v -39.000000 -7.500000 -6.000000
v -36.000000 -7.500000 -6.000000
v -33.000000 -7.500000 -6.000000
v -30.000000 -7.500000 -6.000000
v -27.000000 -7.500000 -6.000000
v -24.000000 -7.500000 -6.000000
v -45.000000 -7.500000 -9.000000
v -42.000000 -7.500000 -9.000000
v -39.000000 -7.500000 -9.000000
v -36.000000 -7.500000 -9.000000
v -33.000000 -7.500000 -9.000000
v -30.000000 -7.500000 -9.000000
v -27.000000 -7.500000 -9.000000
v -24.000000 -7.500000 -9.000000
v -45.000000 -7.500000 -12.000000
v -42.000000 -7.500000 -12.000000
v -39.000000 -7.500000 -12.000000
v -36.000000 -7.500000 -12.000000
v -33.000000 -7.500000 -12.000000
v -30.000000 -7.500000 -12.000000
v -27.000000 -7.500000 -12.000000
v -24.000000 -7.500000 -12.000000
v -45.000000 -7.500000 -15.000000
v -42.000000 -7.500000 -15.000000
v -39.000000 -7.500000 -15.000000
v -36.000000 -7.500000 -15.000000
v -33.000000 -7.500000 -15.000000
v -30.000000 -7.500000 -15.000000
v -27.000000 -7.500000 -15.000000
v -24.000000 -7.500000 -15.000000
vt 0.000000 0.000000
vt 0.200000 0.000000
vt 0.400000 0.000000
vt 0.600000 0.000000
vt 0.800000 0.000000
vt 1.000000 0.000000
vt 1.200000 0.000000
vt 1.400000 0.000000
vt 0.000000 0.200000
vt 0.200000 0.200000
vt 0.400000 0.200000
vt 0.600000 0.200000
vt 0.800000 0.200000
vt 1.000000 0.200000
vt 1.200000 0.200000
vt 1.400000 0.200000
vt 0.000000 0.400000
vt 0.200000 0.400000
vt 0.400000 0.400000
vt 0.600000 0.400000
vt 0.800000 0.400000
vt 1.000000 0.400000
vt 1.200000 0.400000
vt 1.400000 0.400000
vt 0.000000 0.600000
vt 0.200000 0.600000
vt 0.400000 0.600000
vt 0.600000 0.600000
vt 0.800000 0.600000
vt 1.000000 0.600000
vt 1.200000 0.600000
vt 1.400000 0.600000
vt 0.000000 0.800000
vt 0.200000 0.800000
vt 0.400000 0.800000
vt 0.600000 0.800000
vt 0.800000 0.800000
vt 1.000000 0.800000
vt 1.200000 0.800000
vt 1.400000 0.800000
vt 0.000000 1.000000
vt 0.200000 1.000000
vt 0.400000 1.000000
vt 0.600000 1.000000
vt 0.800000 1.000000
vt 1.000000 1.000000
vt 1.200000 1.000000
vt 1.400000 1.000000
vt 0.000000 1.200000
vt 0.200000 1.200000
vt 0.400000 1.200000
vt 0.600000 1.200000
vt 0.800000 1.200000
vt 1.000000 1.200000
vt 1.200000 1.200000
vt 1.400000 1.200000
vt 0.000000 1.400000
vt 0.200000 1.400000
vt 0.400000 1.400000
vt 0.600000 1.400000
vt 0.800000 1.400000
vt 1.000000 1.400000
vt 1.200000 1.400000
vt 1.400000 1.400000
vn 0.000000 -1.000000 -0.000000
vn 0.000000 -1.000000 -0.000000
vn 0.000000 -1.000000 -0.000000
vn 0.000000 -1.000000 -0.000000
vn 0.000000 -1.000000 -0.000000
vn 0.000000 -1.000000 -0.000000
vn 0.000000 -1.000000 -0.000000
vn 0.000000 -1.000000 -0.000000
vn 0.000000 -1.000000 -0.000000
vn 0.000000 -1.000000 -0.000000
vn 0.000000 -1.000000 -0.000000
vn 0.000000 -1.000000 -0.000000
vn 0.000000 -1.000000 -0.000000
vn 0.000000 -1.000000 -0.000000
vn 0.000000 -1.000000 -0.000000
vn 0.000000 -1.000000 -0.000000
vn 0.000000 -1.000000 -0.000000
vn 0.000000 -1.000000 -0.000000
vn 0.000000 -1.000000 -0.000000
vn 0.000000 -1.000000 -0.000000
vn 0.000000 -1.000000 -0.000000
vn 0.000000 -1.000000 -0.000000
vn 0.000000 -1.000000 -0.000000
vn 0.000000 -1.000000 -0.000000
vn 0.000000 -1.000000 -0.000000
vn 0.000000 -1.000000 -0.000000
vn 0.000000 -1.000000 -0.000000
vn 0.000000 -1.000000 -0.000000
vn 0.000000 -1.000000 -0.000000
vn 0.000000 -1.000000 -0.000000
vn 0.000000 -1.000000 -0.000000
vn 0.000000 -1.000000 -0.000000
vn 0.000000 -1.000000 -0.000000
vn 0.000000 -1.000000 -0.000000
vn 0.000000 -1.000000 -0.000000
vn 0.000000 -1.000000 -0.000000
vn 0.000000 -1.000000 -0.000000
vn 0.000000 -1.000000 -0.000000
vn 0.000000 -1.000000 -0.000000
vn 0.000000 -1.000000 -0.000000
vn 0.000000 -1.000000 -0.000000
vn 0.000000 -1.000000 -0.000000
vn 0.000000 -1.000000 -0.000000
vn 0.000000 -1.000000 -0.000000
vn 0.000000 -1.000000 -0.000000
vn 0.000000 -1.000000 -0.000000
vn 0.000000 -1.000000 -0.000000
vn 0.000000 -1.000000 -0.000000
vn 0.000000 -1.000000 -0.000000
vn 0.000000 -1.000000 -0.000000
vn 0.000000 -1.000000 -0.000000
vn 0.000000 -1.000000 -0.000000
vn 0.000000 -1.000000 -0.000000
vn 0.000000 -1.000000 -0.000000
vn 0.000000 -1.000000 -0.000000
vn 0.000000 -1.000000 -0.000000
vn 0.000000 -1.000000 -0.000000
vn 0.000000 -1.000000 -0.000000
vn 0.000000 -1.000000 -0.000000
vn 0.000000 -1.000000 -0.000000
vn 0.000000 -1.000000 -0.000000
vn 0.000000 -1.000000 -0.000000
vn 0.000000 -1.000000 -0.000000
vn 0.000000 -1.000000 -0.000000
f 1/1/1 9/9/2 2/2/3
f 2/2/3 9/9/2 10/10/4
f 2/2/3 10/10/4 3/3/5
f 3/3/5 10/10/4 11/11/6
f 3/3/5 11/11/6 4/4/7
f 4/4/7 11/11/6 12/12/8
f 4/4/7 12/12/8 5/5/9
f 5/5/9 12/12/8 13/13/10
f 5/5/9 13/13/10 6/6/11
f 6/6/11 13/13/10 14/14/12
f 6/6/11 14/14/12 7/7/13
f 7/7/13 14/14/12 15/15/14
f 7/7/13 15/15/14 8/8/15
f 8/8/15 15/15/14 16/16/16
f 9/9/2 17/17/17 10/10/4
f 10/10/4 17/17/17 18/18/18
f 10/10/4 18/18/18 11/11/6
f 11/11/6 18/18/18 19/19/19
f 11/11/6 19/19/19 12/12/8
f 12/12/8 19/19/19 20/20/20
f 12/12/8 20/20/20 13/13/10
f 13/13/10 20/20/20 21/21/21
f 13/13/10 21/21/21 14/14/12
f 14/14/12 21/21/21 22/22/22
f 14/14/12 22/22/22 15/15/14
f 15/15/14 22/22/22 23/23/23
f 15/15/14 23/23/23 16/16/16
f 16/16/16 23/23/23 24/24/24
f 17/17/17 25/25/25 18/18/18
f 18/18/18 25/25/25 26/26/26
f 18/18/18 26/26/26 19/19/19
f 19/19/19 26/26/26 27/27/27
f 19/19/19 27/27/27 20/20/20
f 20/20/20 27/27/27 28/28/28
f 20/20/20 28/28/28 21/21/21
f 21/21/21 28/28/28 29/29/29
f 21/21/21 29/29/29 22/22/22
f 22/22/22 29/29/29 30/30/30
f 22/22/22 30/30/30 23/23/23
f 23/23/23 30/30/30 31/31/31
f 23/23/23 31/31/31 24/24/24
f 24/24/24 31/31/31 32/32/32
f 25/25/25 33/33/33 26/26/26
f 26/26/26 33/33/33 34/34/34
f 26/26/26 34/34/34 27/27/27
f 27/27/27 34/34/34 35/35/35
f 27/27/27 35/35/35 28/28/28
f 28/28/28 35/35/35 36/36/36
f 28/28/28 36/36/36 29/29/29
f 29/29/29 36/36/36 37/37/37
f 29/29/29 37/37/37 30/30/30
f 30/30/30 37/37/37 38/38/38
f 30/30/30 38/38/38 31/31/31
f 31/31/31 38/38/38 39/39/39
f 31/31/31 39/39/39 32/32/32
f 32/32/32 39/39/39 40/40/40
f 33/33/33 41/41/41 34/34/34
f 34/34/34 41/41/41 42/42/42
f 34/34/34 42/42/42 35/35/35
f 35/35/35 42/42/42 43/43/43
f 35/35/35 43/43/43 36/36/36
f 36/36/36 43/43/43 44/44/44
f 36/36/36 44/44/44 37/37/37
f 37/37/37 44/44/44 45/45/45
f 37/37/37 45/45/45 38/38/38
f 38/38/38 45/45/45 46/46/46
f 38/38/38 46/46/46 39/39/39
f 39/39/39 46/46/46 47/47/47
f 39/39/39 47/47/47 40/40/40
f 40/40/40 47/47/47 48/48/48
f 41/41/41 49/49/49 42/42/42
f 42/42/42 49/49/49 50/50/50
f 42/42/42 50/50/50 43/43/43
f 43/43/43 50/50/50 51/51/51
f 43/43/43 51/51/51 44/44/44
f 44/44/44 51/51/51 52/52/52
f 44/44/44 52/52/52 45/45/45
f 45/45/45 52/52/52 53/53/53
f 45/45/45 53/53/53 46/46/46
f 46/46/46 53/53/53 54/54/54
f 46/46/46 54/54/54 47/47/47
f 47/47/47 54/54/54 55/55/55
f 47/47/47 55/55/55 48/48/48
f 48/48/48 55/55/55 56/56/56
f 49/49/49 57/57/57 50/50/50
f 50/50/50 57/57/57 58/58/58
f 50/50/50 58/58/58 51/51/51
f 51/51/51 58/58/58 59/59/59
f 51/51/51 59/59/59 52/52/52
f 52/52/52 59/59/59 60/60/60
f 52/52/52 60/60/60 53/53/53
f 53/53/53 60/60/60 61/61/61
f 53/53/53 61/61/61 54/54/54
f 54/54/54 61/61/61 62/62/62
f 54/54/54 62/62/62 55/55/55
f 55/55/55 62/62/62 63/63/63
f 55/55/55 63/63/63 56/56/56
f 56/56/56 63/63/63 64/64/64
