# The units used in this file are centimeters.
v -76.687363 -7.500000 11.974884
v -73.687363 -7.500000 11.974884
v -70.687363 -7.500000 11.974884
v -67.687363 -7.500000 11.974884
v -64.687363 -7.500000 11.974884
v -61.687363 -7.500000 11.974884
v -58.687363 -7.500000 11.974884
v -55.687363 -7.500000 11.974884
v -52.687363 -7.500000 11.974884
v -49.687363 -7.500000 11.974884
v -46.687363 -7.500000 11.974884
v -76.687363 -7.500000 8.974884
v -73.687363 -7.500000 8.974884
v -70.687363 -7.500000 8.974884
v -67.687363 -7.500000 8.974884
v -64.687363 -7.500000 8.974884
v -61.687363 -7.500000 8.974884
v -58.687363 -7.500000 8.974884
v -55.687363 -7.500000 8.974884
v -52.687363 -7.500000 8.974884
v -49.687363 -7.500000 8.974884
v -46.687363 -7.500000 8.974884
v -76.687363 -7.500000 5.974884
v -73.687363 -7.500000 5.974884
v -70.687363 -7.500000 5.974884
v -67.687363 -7.500000 5.974884
v -64.687363 -7.500000 5.974884
v -61.687363 -7.500000 5.974884
v -58.687363 -7.500000 5.974884
v -55.687363 -7.500000 5.974884
v -52.687363 -7.500000 5.974884
v -49.687363 -7.500000 5.974884
v -46.687363 -7.500000 5.974884
v -76.687363 -7.500000 2.974884
v -73.687363 -7.500000 2.974884
v -70.687363 -7.500000 2.974884
v -67.687363 -7.500000 2.974884
v -64.687363 -7.500000 2.974884
v -61.687363 -7.500000 2.974884
v -58.687363 -7.500000 2.974884
v -55.687363 -7.500000 2.974884
v -52.687363 -7.500000 2.974884
v -49.687363 -7.500000 2.974884
v -46.687363 -7.500000 2.974884
v -76.687363 -7.500000 -0.025116
v -73.687363 -7.500000 -0.025116
v -70.687363 -7.500000 -0.025116
v -67.687363 -7.500000 -0.025116
v -64.687363 -7.500000 -0.025116
v -61.687363 -7.500000 -0.025116
v -58.687363 -7.500000 -0.025116
v -55.687363 -7.500000 -0.025116
v -52.687363 -7.500000 -0.025116
v -49.687363 -7.500000 -0.025116
v -46.687363 -7.500000 -0.025116
v -76.687363 -7.500000 -3.025116
v -73.687363 -7.500000 -3.025116
v -70.687363 -7.500000 -3.025116
v -67.687363 -7.500000 -3.025116
v -64.687363 -7.500000 -3.025116
v -61.687363 -7.500000 -3.025116
v -58.687363 -7.500000 -3.025116
v -55.687363 -7.500000 -3.025116
v -52.687363 -7.500000 -3.025116
v -49.687363 -7.500000 -3.025116
v -46.687363 -7.500000 -3.025116
v -76.687363 -7.500000 -6.025116
v -73.687363 -7.500000 -6.025116
v -70.687363 -7.500000 -6.025116
v -67.687363 -7.500000 -6.025116
v -64.687363 -7.500000 -6.025116
v -61.687363 -7.500000 -6.025116
v -58.687363 -7.500000 -6.025116
v -55.687363 -7.500000 -6.025116
v -52.687363 -7.500000 -6.025116
v -49.687363 -7.500000 -6.025116
v -46.687363 -7.500000 -6.025116
v -76.687363 -7.500000 -9.025116
v -73.687363 -7.500000 -9.025116
v -70.687363 -7.500000 -9.025116
v -67.687363 -7.500000 -9.025116
v -64.687363 -7.500000 -9.025116
v -61.687363 -7.500000 -9.025116
v -58.687363 -7.500000 -9.025116
v -55.687363 -7.500000 -9.025116
v -52.687363 -7.500000 -9.025116
v -49.687363 -7.500000 -9.025116
v -46.687363 -7.500000 -9.025116
v -76.687363 -7.500000 -12.025116
v -73.687363 -7.500000 -12.025116
v -70.687363 -7.500000 -12.025116
v -67.687363 -7.500000 -12.025116
v -64.687363 -7.500000 -12.025116
v -61.687363 -7.500000 -12.025116
v -58.687363 -7.500000 -12.025116
v -55.687363 -7.500000 -12.025116
v -52.687363 -7.500000 -12.025116
v -49.687363 -7.500000 -12.025116
v -46.687363 -7.500000 -12.025116
v -76.687363 -7.500000 -15.025116
v -73.687363 -7.500000 -15.025116
v -70.687363 -7.500000 -15.025116
v -67.687363 -7.500000 -15.025116
v -64.687363 -7.500000 -15.025116
v -61.687363 -7.500000 -15.025116
v -58.687363 -7.500000 -15.025116
v -55.687363 -7.500000 -15.025116
v -52.687363 -7.500000 -15.025116
v -49.687363 -7.500000 -15.025116
v -46.687363 -7.500000 -15.025116
vt 0.000000 0.000000
vt 0.000000 0.200000
vt 0.200000 0.200000
vt 0.200000 0.000000
vt 0.400000 0.200000
vt 0.400000 0.000000
vt 0.600000 0.200000
vt 0.600000 0.000000
vt 0.800000 0.200000
vt 0.800000 0.000000
vt 1.000000 0.200000
vt 1.000000 0.000000
vt 1.200000 0.200000
vt 1.200000 0.000000
vt 1.400000 0.200000
vt 1.400000 0.000000
vt 1.600000 0.200000
vt 1.600000 0.000000
vt 1.800000 0.200000
vt 1.800000 0.000000
vt 2.000000 0.200000
vt 2.000000 0.000000
vt 0.000000 0.400000
vt 0.200000 0.400000
vt 0.400000 0.400000
vt 0.600000 0.400000
vt 0.800000 0.400000
vt 1.000000 0.400000
vt 1.200000 0.400000
vt 1.400000 0.400000
vt 1.600000 0.400000
vt 1.800000 0.400000
vt 2.000000 0.400000
vt 0.000000 0.600000
vt 0.200000 0.600000
vt 0.400000 0.600000
vt 0.600000 0.600000
vt 0.800000 0.600000
vt 1.000000 0.600000
vt 1.200000 0.600000
vt 1.400000 0.600000
vt 1.600000 0.600000
vt 1.800000 0.600000
vt 2.000000 0.600000
vt 0.000000 0.800000
vt 0.200000 0.800000
vt 0.400000 0.800000
vt 0.600000 0.800000
vt 0.800000 0.800000
vt 1.000000 0.800000
vt 1.200000 0.800000
vt 1.400000 0.800000
vt 1.600000 0.800000
vt 1.800000 0.800000
vt 2.000000 0.800000
vt 0.000000 1.000000
vt 0.200000 1.000000
vt 0.400000 1.000000
vt 0.600000 1.000000
vt 0.800000 1.000000
vt 1.000000 1.000000
vt 1.200000 1.000000
vt 1.400000 1.000000
vt 1.600000 1.000000
vt 1.800000 1.000000
vt 2.000000 1.000000
vt 0.000000 1.200000
vt 0.200000 1.200000
vt 0.400000 1.200000
vt 0.600000 1.200000
vt 0.800000 1.200000
vt 1.000000 1.200000
vt 1.200000 1.200000
vt 1.400000 1.200000
vt 1.600000 1.200000
vt 1.800000 1.200000
vt 2.000000 1.200000
vt 0.000000 1.400000
vt 0.200000 1.400000
vt 0.400000 1.400000
vt 0.600000 1.400000
vt 0.800000 1.400000
vt 1.000000 1.400000
vt 1.200000 1.400000
vt 1.400000 1.400000
vt 1.600000 1.400000
vt 1.800000 1.400000
vt 2.000000 1.400000
vt 0.000000 1.600000
vt 0.200000 1.600000
vt 0.400000 1.600000
vt 0.600000 1.600000
vt 0.800000 1.600000
vt 1.000000 1.600000
vt 1.200000 1.600000
vt 1.400000 1.600000
vt 1.600000 1.600000
vt 1.800000 1.600000
vt 2.000000 1.600000
vt 0.000000 1.800000
vt 0.200000 1.800000
vt 0.400000 1.800000
vt 0.600000 1.800000
vt 0.800000 1.800000
vt 1.000000 1.800000
vt 1.200000 1.800000
vt 1.400000 1.800000
vt 1.600000 1.800000
vt 1.800000 1.800000
vt 2.000000 1.800000
vn 0.000000 -1.000000 0.000000
vn 0.000000 -1.000000 0.000000
vn 0.000000 -1.000000 0.000000
vn 0.000000 -1.000000 0.000000
vn 0.000000 -1.000000 0.000000
vn 0.000000 -1.000000 0.000000
vn 0.000000 -1.000000 0.000000
vn 0.000000 -1.000000 0.000000
vn 0.000000 -1.000000 0.000000
vn 0.000000 -1.000000 0.000000
vn 0.000000 -1.000000 0.000000
vn 0.000000 -1.000000 0.000000
vn 0.000000 -1.000000 0.000000
vn 0.000000 -1.000000 0.000000
vn 0.000000 -1.000000 0.000000
vn 0.000000 -1.000000 0.000000
vn 0.000000 -1.000000 0.000000
vn 0.000000 -1.000000 0.000000
vn 0.000000 -1.000000 0.000000
vn 0.000000 -1.000000 0.000000
vn 0.000000 -1.000000 0.000000
vn 0.000000 -1.000000 0.000000
vn 0.000000 -1.000000 0.000000
vn 0.000000 -1.000000 0.000000
vn 0.000000 -1.000000 0.000000
vn 0.000000 -1.000000 0.000000
vn 0.000000 -1.000000 0.000000
vn 0.000000 -1.000000 0.000000
vn 0.000000 -1.000000 0.000000
vn 0.000000 -1.000000 0.000000
vn 0.000000 -1.000000 0.000000
vn 0.000000 -1.000000 0.000000
vn 0.000000 -1.000000 0.000000
vn 0.000000 -1.000000 0.000000
vn 0.000000 -1.000000 0.000000
vn 0.000000 -1.000000 0.000000
vn 0.000000 -1.000000 0.000000
vn 0.000000 -1.000000 0.000000
vn 0.000000 -1.000000 0.000000
vn 0.000000 -1.000000 0.000000
vn 0.000000 -1.000000 0.000000
vn 0.000000 -1.000000 0.000000
vn 0.000000 -1.000000 0.000000
vn 0.000000 -1.000000 0.000000
vn 0.000000 -1.000000 0.000000
vn 0.000000 -1.000000 0.000000
vn 0.000000 -1.000000 0.000000
vn 0.000000 -1.000000 0.000000
vn 0.000000 -1.000000 0.000000
vn 0.000000 -1.000000 0.000000
vn 0.000000 -1.000000 0.000000
vn 0.000000 -1.000000 0.000000
vn 0.000000 -1.000000 0.000000
vn 0.000000 -1.000000 0.000000
vn 0.000000 -1.000000 0.000000
vn 0.000000 -1.000000 0.000000
vn 0.000000 -1.000000 0.000000
vn 0.000000 -1.000000 0.000000
vn 0.000000 -1.000000 0.000000
vn 0.000000 -1.000000 0.000000
vn 0.000000 -1.000000 0.000000
vn 0.000000 -1.000000 0.000000
vn 0.000000 -1.000000 0.000000
vn 0.000000 -1.000000 0.000000
vn 0.000000 -1.000000 0.000000
vn 0.000000 -1.000000 0.000000
vn 0.000000 -1.000000 0.000000
vn 0.000000 -1.000000 0.000000
vn 0.000000 -1.000000 0.000000
vn 0.000000 -1.000000 0.000000
vn 0.000000 -1.000000 0.000000
vn 0.000000 -1.000000 0.000000
vn 0.000000 -1.000000 0.000000
vn 0.000000 -1.000000 0.000000
vn 0.000000 -1.000000 0.000000
vn 0.000000 -1.000000 0.000000
vn 0.000000 -1.000000 0.000000
vn 0.000000 -1.000000 0.000000
vn 0.000000 -1.000000 0.000000
vn 0.000000 -1.000000 0.000000
vn 0.000000 -1.000000 0.000000
vn 0.000000 -1.000000 0.000000
vn 0.000000 -1.000000 0.000000
vn 0.000000 -1.000000 0.000000
vn 0.000000 -1.000000 0.000000
vn 0.000000 -1.000000 0.000000
vn 0.000000 -1.000000 0.000000
vn 0.000000 -1.000000 0.000000
vn 0.000000 -1.000000 0.000000
vn 0.000000 -1.000000 0.000000
vn 0.000000 -1.000000 0.000000
vn 0.000000 -1.000000 0.000000
vn 0.000000 -1.000000 0.000000
vn 0.000000 -1.000000 0.000000
vn 0.000000 -1.000000 0.000000
vn 0.000000 -1.000000 0.000000
vn 0.000000 -1.000000 0.000000
vn 0.000000 -1.000000 0.000000
vn 0.000000 -1.000000 0.000000
vn 0.000000 -1.000000 0.000000
vn 0.000000 -1.000000 0.000000
vn 0.000000 -1.000000 0.000000
vn 0.000000 -1.000000 0.000000
vn 0.000000 -1.000000 0.000000
vn 0.000000 -1.000000 0.000000
vn 0.000000 -1.000000 0.000000
vn 0.000000 -1.000000 0.000000
vn 0.000000 -1.000000 0.000000
vn 0.000000 -1.000000 0.000000
vn 0.000000 -1.000000 0.000000
f 1/1/1 12/2/2 2/4/3
f 2/4/3 12/2/2 13/3/4
f 2/4/3 13/3/4 3/6/5
f 3/6/5 13/3/4 14/5/6
f 3/6/5 14/5/6 4/8/7
f 4/8/7 14/5/6 15/7/8
f 4/8/7 15/7/8 5/10/9
f 5/10/9 15/7/8 16/9/10
f 5/10/9 16/9/10 6/12/11
f 6/12/11 16/9/10 17/11/12
f 6/12/11 17/11/12 7/14/13
f 7/14/13 17/11/12 18/13/14
f 7/14/13 18/13/14 8/16/15
f 8/16/15 18/13/14 19/15/16
f 8/16/15 19/15/16 9/18/17
f 9/18/17 19/15/16 20/17/18
f 9/18/17 20/17/18 10/20/19
f 10/20/19 20/17/18 21/19/20
f 10/20/19 21/19/20 11/22/21
f 11/22/21 21/19/20 22/21/22
f 12/2/2 23/23/23 13/3/4
f 13/3/4 23/23/23 24/24/24
f 13/3/4 24/24/24 14/5/6
f 14/5/6 24/24/24 25/25/25
f 14/5/6 25/25/25 15/7/8
f 15/7/8 25/25/25 26/26/26
f 15/7/8 26/26/26 16/9/10
f 16/9/10 26/26/26 27/27/27
f 16/9/10 27/27/27 17/11/12
f 17/11/12 27/27/27 28/28/28
f 17/11/12 28/28/28 18/13/14
f 18/13/14 28/28/28 29/29/29
f 18/13/14 29/29/29 19/15/16
f 19/15/16 29/29/29 30/30/30
f 19/15/16 30/30/30 20/17/18
f 20/17/18 30/30/30 31/31/31
f 20/17/18 31/31/31 21/19/20
f 21/19/20 31/31/31 32/32/32
f 21/19/20 32/32/32 22/21/22
f 22/21/22 32/32/32 33/33/33
f 23/23/23 34/34/34 24/24/24
f 24/24/24 34/34/34 35/35/35
f 24/24/24 35/35/35 25/25/25
f 25/25/25 35/35/35 36/36/36
f 25/25/25 36/36/36 26/26/26
f 26/26/26 36/36/36 37/37/37
f 26/26/26 37/37/37 27/27/27
f 27/27/27 37/37/37 38/38/38
f 27/27/27 38/38/38 28/28/28
f 28/28/28 38/38/38 39/39/39
f 28/28/28 39/39/39 29/29/29
f 29/29/29 39/39/39 40/40/40
f 29/29/29 40/40/40 30/30/30
f 30/30/30 40/40/40 41/41/41
f 30/30/30 41/41/41 31/31/31
f 31/31/31 41/41/41 42/42/42
f 31/31/31 42/42/42 32/32/32
f 32/32/32 42/42/42 43/43/43
f 32/32/32 43/43/43 33/33/33
f 33/33/33 43/43/43 44/44/44
f 34/34/34 45/45/45 35/35/35
f 35/35/35 45/45/45 46/46/46
f 35/35/35 46/46/46 36/36/36
f 36/36/36 46/46/46 47/47/47
f 36/36/36 47/47/47 37/37/37
f 37/37/37 47/47/47 48/48/48
f 37/37/37 48/48/48 38/38/38
f 38/38/38 48/48/48 49/49/49
f 38/38/38 49/49/49 39/39/39
f 39/39/39 49/49/49 50/50/50
f 39/39/39 50/50/50 40/40/40
f 40/40/40 50/50/50 51/51/51
f 40/40/40 51/51/51 41/41/41
f 41/41/41 51/51/51 52/52/52
f 41/41/41 52/52/52 42/42/42
f 42/42/42 52/52/52 53/53/53
f 42/42/42 53/53/53 43/43/43
f 43/43/43 53/53/53 54/54/54
f 43/43/43 54/54/54 44/44/44
f 44/44/44 54/54/54 55/55/55
f 45/45/45 56/56/56 46/46/46
f 46/46/46 56/56/56 57/57/57
f 46/46/46 57/57/57 47/47/47
f 47/47/47 57/57/57 58/58/58
f 47/47/47 58/58/58 48/48/48
f 48/48/48 58/58/58 59/59/59
f 48/48/48 59/59/59 49/49/49
f 49/49/49 59/59/59 60/60/60
f 49/49/49 60/60/60 50/50/50
f 50/50/50 60/60/60 61/61/61
f 50/50/50 61/61/61 51/51/51
f 51/51/51 61/61/61 62/62/62
f 51/51/51 62/62/62 52/52/52
f 52/52/52 62/62/62 63/63/63
f 52/52/52 63/63/63 53/53/53
f 53/53/53 63/63/63 64/64/64
f 53/53/53 64/64/64 54/54/54
f 54/54/54 64/64/64 65/65/65
f 54/54/54 65/65/65 55/55/55
f 55/55/55 65/65/65 66/66/66
f 56/56/56 67/67/67 57/57/57
f 57/57/57 67/67/67 68/68/68
f 57/57/57 68/68/68 58/58/58
f 58/58/58 68/68/68 69/69/69
f 58/58/58 69/69/69 59/59/59
f 59/59/59 69/69/69 70/70/70
f 59/59/59 70/70/70 60/60/60
f 60/60/60 70/70/70 71/71/71
f 60/60/60 71/71/71 61/61/61
f 61/61/61 71/71/71 72/72/72
f 61/61/61 72/72/72 62/62/62
f 62/62/62 72/72/72 73/73/73
f 62/62/62 73/73/73 63/63/63
f 63/63/63 73/73/73 74/74/74
f 63/63/63 74/74/74 64/64/64
f 64/64/64 74/74/74 75/75/75
f 64/64/64 75/75/75 65/65/65
f 65/65/65 75/75/75 76/76/76
f 65/65/65 76/76/76 66/66/66
f 66/66/66 76/76/76 77/77/77
f 67/67/67 78/78/78 68/68/68
f 68/68/68 78/78/78 79/79/79
f 68/68/68 79/79/79 69/69/69
f 69/69/69 79/79/79 80/80/80
f 69/69/69 80/80/80 70/70/70
f 70/70/70 80/80/80 81/81/81
f 70/70/70 81/81/81 71/71/71
f 71/71/71 81/81/81 82/82/82
f 71/71/71 82/82/82 72/72/72
f 72/72/72 82/82/82 83/83/83
f 72/72/72 83/83/83 73/73/73
f 73/73/73 83/83/83 84/84/84
f 73/73/73 84/84/84 74/74/74
f 74/74/74 84/84/84 85/85/85
f 74/74/74 85/85/85 75/75/75
f 75/75/75 85/85/85 86/86/86
f 75/75/75 86/86/86 76/76/76
f 76/76/76 86/86/86 87/87/87
f 76/76/76 87/87/87 77/77/77
f 77/77/77 87/87/87 88/88/88
f 78/78/78 89/89/89 79/79/79
f 79/79/79 89/89/89 90/90/90
f 79/79/79 90/90/90 80/80/80
f 80/80/80 90/90/90 91/91/91
f 80/80/80 91/91/91 81/81/81
f 81/81/81 91/91/91 92/92/92
f 81/81/81 92/92/92 82/82/82
f 82/82/82 92/92/92 93/93/93
f 82/82/82 93/93/93 83/83/83
f 83/83/83 93/93/93 94/94/94
f 83/83/83 94/94/94 84/84/84
f 84/84/84 94/94/94 95/95/95
f 84/84/84 95/95/95 85/85/85
f 85/85/85 95/95/95 96/96/96
f 85/85/85 96/96/96 86/86/86
f 86/86/86 96/96/96 97/97/97
f 86/86/86 97/97/97 87/87/87
f 87/87/87 97/97/97 98/98/98
f 87/87/87 98/98/98 88/88/88
f 88/88/88 98/98/98 99/99/99
f 89/89/89 100/100/100 90/90/90
f 90/90/90 100/100/100 101/101/101
f 90/90/90 101/101/101 91/91/91
f 91/91/91 101/101/101 102/102/102
f 91/91/91 102/102/102 92/92/92
f 92/92/92 102/102/102 103/103/103
f 92/92/92 103/103/103 93/93/93
f 93/93/93 103/103/103 104/104/104
f 93/93/93 104/104/104 94/94/94
f 94/94/94 104/104/104 105/105/105
f 94/94/94 105/105/105 95/95/95
f 95/95/95 105/105/105 106/106/106
f 95/95/95 106/106/106 96/96/96
f 96/96/96 106/106/106 107/107/107
f 96/96/96 107/107/107 97/97/97
f 97/97/97 107/107/107 108/108/108
f 97/97/97 108/108/108 98/98/98
f 98/98/98 108/108/108 109/109/109
f 98/98/98 109/109/109 99/99/99
f 99/99/99 109/109/109 110/110/110
