# The units used in this file are centimeters.
v -61.687370 -7.500000 26.974869
v -58.687370 -7.500000 26.974869
v -55.687370 -7.500000 26.974869
v -52.687370 -7.500000 26.974869
v -49.687370 -7.500000 26.974869
v -46.687370 -7.500000 26.974869
v -61.687370 -7.500000 23.974869
v -58.687370 -7.500000 23.974869
v -55.687370 -7.500000 23.974869
v -52.687370 -7.500000 23.974869
v -49.687370 -7.500000 23.974869
v -46.687370 -7.500000 23.974869
v -61.687370 -7.500000 20.974869
v -58.687370 -7.500000 20.974869
v -55.687370 -7.500000 20.974869
v -52.687370 -7.500000 20.974869
v -49.687370 -7.500000 20.974869
v -46.687370 -7.500000 20.974869
v -61.687370 -7.500000 17.974869
v -58.687370 -7.500000 17.974869
v -55.687370 -7.500000 17.974869
v -52.687370 -7.500000 17.974869
v -49.687370 -7.500000 17.974869
v -46.687370 -7.500000 17.974869
v -61.687370 -7.500000 14.974869
v -58.687370 -7.500000 14.974869
v -55.687370 -7.500000 14.974869
v -52.687370 -7.500000 14.974869
v -49.687370 -7.500000 14.974869
v -46.687370 -7.500000 14.974869
v -61.687370 -7.500000 11.974869
v -58.687370 -7.500000 11.974869
v -55.687370 -7.500000 11.974869
v -52.687370 -7.500000 11.974869
v -49.687370 -7.500000 11.974869
v -46.687370 -7.500000 11.974869
vt 0.000000 0.000000
vt 0.200000 0.000000
vt 0.400000 0.000000
vt 0.600000 0.000000
vt 0.800000 0.000000
vt 1.000000 0.000000
vt 0.000000 0.200000
vt 0.200000 0.200000
vt 0.400000 0.200000
vt 0.600000 0.200000
vt 0.800000 0.200000
vt 1.000000 0.200000
vt 0.000000 0.400000
vt 0.200000 0.400000
vt 0.400000 0.400000
vt 0.600000 0.400000
vt 0.800000 0.400000
vt 1.000000 0.400000
vt 0.000000 0.600000
vt 0.200000 0.600000
vt 0.400000 0.600000
vt 0.600000 0.600000
vt 0.800000 0.600000
vt 1.000000 0.600000
vt 0.000000 0.800000
vt 0.200000 0.800000
vt 0.400000 0.800000
vt 0.600000 0.800000
vt 0.800000 0.800000
vt 1.000000 0.800000
vt 0.000000 1.000000
vt 0.200000 1.000000
vt 0.400000 1.000000
vt 0.600000 1.000000
vt 0.800000 1.000000
vt 1.000000 1.000000
vn 0.000000 -1.000000 -0.000000
vn 0.000000 -1.000000 -0.000000
vn 0.000000 -1.000000 -0.000000
vn 0.000000 -1.000000 -0.000000
vn 0.000000 -1.000000 -0.000000
vn 0.000000 -1.000000 -0.000000
vn 0.000000 -1.000000 -0.000000
vn 0.000000 -1.000000 -0.000000
vn 0.000000 -1.000000 -0.000000
vn 0.000000 -1.000000 -0.000000
vn 0.000000 -1.000000 -0.000000
vn 0.000000 -1.000000 -0.000000
vn 0.000000 -1.000000 -0.000000
vn 0.000000 -1.000000 -0.000000
vn 0.000000 -1.000000 -0.000000
vn 0.000000 -1.000000 -0.000000
vn 0.000000 -1.000000 -0.000000
vn 0.000000 -1.000000 -0.000000
vn 0.000000 -1.000000 -0.000000
vn 0.000000 -1.000000 -0.000000
vn 0.000000 -1.000000 -0.000000
vn 0.000000 -1.000000 -0.000000
vn 0.000000 -1.000000 -0.000000
vn 0.000000 -1.000000 -0.000000
vn 0.000000 -1.000000 -0.000000
vn 0.000000 -1.000000 -0.000000
vn 0.000000 -1.000000 -0.000000
vn 0.000000 -1.000000 -0.000000
vn 0.000000 -1.000000 -0.000000
vn 0.000000 -1.000000 -0.000000
vn 0.000000 -1.000000 -0.000000
vn 0.000000 -1.000000 -0.000000
vn 0.000000 -1.000000 -0.000000
vn 0.000000 -1.000000 -0.000000
vn 0.000000 -1.000000 -0.000000
vn 0.000000 -1.000000 -0.000000
f 1/1/1 7/7/2 2/2/3
f 2/2/3 7/7/2 8/8/4
f 2/2/3 8/8/4 3/3/5
f 3/3/5 8/8/4 9/9/6
f 3/3/5 9/9/6 4/4/7
f 4/4/7 9/9/6 10/10/8
f 4/4/7 10/10/8 5/5/9
f 5/5/9 10/10/8 11/11/10
f 5/5/9 11/11/10 6/6/11
f 6/6/11 11/11/10 12/12/12
f 7/7/2 13/13/13 8/8/4
f 8/8/4 13/13/13 14/14/14
f 8/8/4 14/14/14 9/9/6
f 9/9/6 14/14/14 15/15/15
f 9/9/6 15/15/15 10/10/8
f 10/10/8 15/15/15 16/16/16
f 10/10/8 16/16/16 11/11/10
f 11/11/10 16/16/16 17/17/17
f 11/11/10 17/17/17 12/12/12
f 12/12/12 17/17/17 18/18/18
f 13/13/13 19/19/19 14/14/14
f 14/14/14 19/19/19 20/20/20
f 14/14/14 20/20/20 15/15/15
f 15/15/15 20/20/20 21/21/21
f 15/15/15 21/21/21 16/16/16
f 16/16/16 21/21/21 22/22/22
f 16/16/16 22/22/22 17/17/17
f 17/17/17 22/22/22 23/23/23
f 17/17/17 23/23/23 18/18/18
f 18/18/18 23/23/23 24/24/24
f 19/19/19 25/25/25 20/20/20
f 20/20/20 25/25/25 26/26/26
f 20/20/20 26/26/26 21/21/21
f 21/21/21 26/26/26 27/27/27
f 21/21/21 27/27/27 22/22/22
f 22/22/22 27/27/27 28/28/28
f 22/22/22 28/28/28 23/23/23
f 23/23/23 28/28/28 29/29/29
f 23/23/23 29/29/29 24/24/24
f 24/24/24 29/29/29 30/30/30
f 25/25/25 31/31/31 26/26/26
f 26/26/26 31/31/31 32/32/32
f 26/26/26 32/32/32 27/27/27
f 27/27/27 32/32/32 33/33/33
f 27/27/27 33/33/33 28/28/28
f 28/28/28 33/33/33 34/34/34
f 28/28/28 34/34/34 29/29/29
f 29/29/29 34/34/34 35/35/35
f 29/29/29 35/35/35 30/30/30
f 30/30/30 35/35/35 36/36/36
