# The units used in this file are centimeters.
v -151.500000 -52.500000 96.000031
v -148.500000 -52.500000 96.000031
v -148.500000 -52.500000 93.000031
v -151.500000 -52.500000 93.000031
v -145.500000 -52.500000 96.000031
v -145.500000 -52.500000 93.000031
v -142.500000 -52.500000 96.000031
v -142.500000 -52.500000 93.000031
v -139.500000 -52.500000 96.000031
v -139.500000 -52.500000 93.000031
v -136.500000 -52.500000 96.000031
v -136.500000 -52.500000 93.000031
v -133.500000 -52.500000 96.000031
v -133.500000 -52.500000 93.000031
v -130.500000 -52.500000 96.000031
v -130.500000 -52.500000 93.000031
v -127.500000 -52.500000 96.000031
v -127.500000 -52.500000 93.000031
v -124.500000 -52.500000 96.000031
v -124.500000 -52.500000 93.000031
v -121.500000 -52.500000 96.000031
v -121.500000 -52.500000 93.000031
v -118.500000 -52.500000 96.000031
v -118.500000 -52.500000 93.000031
v -148.500000 -52.500000 90.000031
v -151.500000 -52.500000 90.000031
v -145.500000 -52.500000 90.000031
v -142.500000 -52.500000 90.000031
v -139.500000 -52.500000 90.000031
v -136.500000 -52.500000 90.000031
v -133.500000 -52.500000 90.000031
v -130.500000 -52.500000 90.000031
v -127.500000 -52.500000 90.000031
v -124.500000 -52.500000 90.000031
v -121.500000 -52.500000 90.000031
v -118.500000 -52.500000 90.000031
v -148.500000 -52.500000 87.000031
v -151.500000 -52.500000 87.000031
v -145.500000 -52.500000 87.000031
v -142.500000 -52.500000 87.000031
v -139.500000 -52.500000 87.000031
v -136.500000 -52.500000 87.000031
v -133.500000 -52.500000 87.000031
v -130.500000 -52.500000 87.000031
v -127.500000 -52.500000 87.000031
v -124.500000 -52.500000 87.000031
v -121.500000 -52.500000 87.000031
v -118.500000 -52.500000 87.000031
v -148.500000 -52.500000 84.000031
v -151.500000 -52.500000 84.000031
v -145.500000 -52.500000 84.000031
v -142.500000 -52.500000 84.000031
v -139.500000 -52.500000 84.000031
v -136.500000 -52.500000 84.000031
v -133.500000 -52.500000 84.000031
v -130.500000 -52.500000 84.000031
v -127.500000 -52.500000 84.000031
v -124.500000 -52.500000 84.000031
v -121.500000 -52.500000 84.000031
v -118.500000 -52.500000 84.000031
v -148.500000 -52.500000 81.000031
v -151.500000 -52.500000 81.000031
v -145.500000 -52.500000 81.000031
v -142.500000 -52.500000 81.000031
v -139.500000 -52.500000 81.000031
v -136.500000 -52.500000 81.000031
v -133.500000 -52.500000 81.000031
v -130.500000 -52.500000 81.000031
v -127.500000 -52.500000 81.000031
v -124.500000 -52.500000 81.000031
v -121.500000 -52.500000 81.000031
v -118.500000 -52.500000 81.000031
v -148.500000 -52.500000 78.000031
v -151.500000 -52.500000 78.000031
v -145.500000 -52.500000 78.000031
v -142.500000 -52.500000 78.000031
v -139.500000 -52.500000 78.000031
v -136.500000 -52.500000 78.000031
v -133.500000 -52.500000 78.000031
v -130.500000 -52.500000 78.000031
v -127.500000 -52.500000 78.000031
v -124.500000 -52.500000 78.000031
v -121.500000 -52.500000 78.000031
v -118.500000 -52.500000 78.000031
v -151.500000 -58.500000 96.000031
v -148.500000 -58.500000 96.000031
v -151.500000 -58.500000 93.000031
v -145.500000 -58.500000 96.000031
v -142.500000 -58.500000 96.000031
v -139.500000 -58.500000 96.000031
v -136.500000 -58.500000 96.000031
v -133.500000 -58.500000 96.000031
v -130.500000 -58.500000 96.000031
v -127.500000 -58.500000 96.000031
v -124.500000 -58.500000 96.000031
v -121.500000 -58.500000 96.000031
v -118.500000 -58.500000 96.000031
v -118.500000 -58.500000 93.000031
v -151.500000 -58.500000 90.000031
v -118.500000 -58.500000 90.000031
v -151.500000 -58.500000 87.000031
v -118.500000 -58.500000 87.000031
v -151.500000 -58.500000 84.000031
v -118.500000 -58.500000 84.000031
v -151.500000 -58.500000 81.000031
v -118.500000 -58.500000 81.000031
v -151.500000 -58.500000 78.000031
v -118.500000 -58.500000 78.000031
vt 0.233781 0.044144
vt 0.272048 0.044144
vt 0.233781 0.066177
vt 0.272048 0.066177
vt 0.310316 0.044144
vt 0.310316 0.066177
vt 0.348583 0.044144
vt 0.348583 0.066177
vt 0.386851 0.044144
vt 0.386851 0.066177
vt 0.425118 0.044144
vt 0.425118 0.066177
vt 0.463386 0.044144
vt 0.463386 0.066177
vt 0.501653 0.044144
vt 0.501653 0.066177
vt 0.539920 0.044144
vt 0.539920 0.066177
vt 0.578188 0.044144
vt 0.578188 0.066177
vt 0.616455 0.044144
vt 0.616455 0.066177
vt 0.654723 0.044144
vt 0.654723 0.066177
vt 0.233781 0.088211
vt 0.272048 0.088211
vt 0.310316 0.088211
vt 0.348583 0.088211
vt 0.386851 0.088211
vt 0.425118 0.088211
vt 0.463386 0.088211
vt 0.501653 0.088211
vt 0.539920 0.088211
vt 0.578188 0.088211
vt 0.616455 0.088211
vt 0.654723 0.088211
vt 0.233781 0.110244
vt 0.272048 0.110244
vt 0.310316 0.110244
vt 0.348583 0.110244
vt 0.386851 0.110244
vt 0.425118 0.110244
vt 0.463386 0.110244
vt 0.501653 0.110244
vt 0.539920 0.110244
vt 0.578188 0.110244
vt 0.616455 0.110244
vt 0.654723 0.110244
vt 0.233781 0.132277
vt 0.272048 0.132277
vt 0.310316 0.132277
vt 0.348583 0.132277
vt 0.386851 0.132277
vt 0.425118 0.132277
vt 0.463386 0.132277
vt 0.501653 0.132277
vt 0.539920 0.132277
vt 0.578188 0.132277
vt 0.616455 0.132277
vt 0.654723 0.132277
vt 0.233781 0.154311
vt 0.272048 0.154311
vt 0.310316 0.154311
vt 0.348583 0.154311
vt 0.386851 0.154311
vt 0.425118 0.154311
vt 0.463386 0.154311
vt 0.501653 0.154311
vt 0.539920 0.154311
vt 0.578188 0.154311
vt 0.616455 0.154311
vt 0.654723 0.154311
vt 0.233781 0.176344
vt 0.272048 0.176344
vt 0.310316 0.176344
vt 0.348583 0.176344
vt 0.386851 0.176344
vt 0.425118 0.176344
vt 0.463386 0.176344
vt 0.501653 0.176344
vt 0.539920 0.176344
vt 0.578188 0.176344
vt 0.616455 0.176344
vt 0.654723 0.176344
vt 0.233781 0.044144
vt 0.272048 0.044144
vt 0.233781 0.066177
vt 0.310316 0.044144
vt 0.348583 0.044144
vt 0.386851 0.044144
vt 0.425118 0.044144
vt 0.463386 0.044144
vt 0.501653 0.044144
vt 0.539920 0.044144
vt 0.578188 0.044144
vt 0.616455 0.044144
vt 0.654723 0.044144
vt 0.654723 0.066177
vt 0.233781 0.088211
vt 0.654723 0.088211
vt 0.233781 0.110244
vt 0.654723 0.110244
vt 0.233781 0.132277
vt 0.654723 0.132277
vt 0.233781 0.154311
vt 0.654723 0.154311
vt 0.233781 0.176344
vt 0.654723 0.176344
vn 0.000000 1.000000 0.000000
vn 0.000000 1.000000 0.000000
vn 0.000000 1.000000 0.000000
vn 0.000000 1.000000 0.000000
vn 0.000000 1.000000 0.000000
vn 0.000000 1.000000 0.000000
vn 0.000000 1.000000 0.000000
vn 0.000000 1.000000 0.000000
vn 0.000000 1.000000 0.000000
vn 0.000000 1.000000 0.000000
vn 0.000000 1.000000 0.000000
vn 0.000000 1.000000 0.000000
vn 0.000000 1.000000 0.000000
vn 0.000000 1.000000 0.000000
vn 0.000000 1.000000 0.000000
vn 0.000000 1.000000 0.000000
vn 0.000000 1.000000 0.000000
vn 0.000000 1.000000 0.000000
vn 0.000000 1.000000 0.000000
vn 0.000000 1.000000 0.000000
vn 0.000000 1.000000 0.000000
vn 0.000000 1.000000 0.000000
vn 0.000000 1.000000 0.000000
vn 0.000000 1.000000 0.000000
vn 0.000000 1.000000 0.000000
vn 0.000000 1.000000 0.000000
vn 0.000000 1.000000 0.000000
vn 0.000000 1.000000 0.000000
vn 0.000000 1.000000 0.000000
vn 0.000000 1.000000 0.000000
vn 0.000000 1.000000 0.000000
vn 0.000000 1.000000 0.000000
vn 0.000000 1.000000 0.000000
vn 0.000000 1.000000 0.000000
vn 0.000000 1.000000 0.000000
vn 0.000000 1.000000 0.000000
vn 0.000000 1.000000 0.000000
vn 0.000000 1.000000 0.000000
vn 0.000000 1.000000 0.000000
vn 0.000000 1.000000 0.000000
vn 0.000000 1.000000 0.000000
vn 0.000000 1.000000 0.000000
vn 0.000000 1.000000 0.000000
vn 0.000000 1.000000 0.000000
vn 0.000000 1.000000 0.000000
vn 0.000000 1.000000 0.000000
vn 0.000000 1.000000 0.000000
vn 0.000000 1.000000 0.000000
vn 0.000000 1.000000 0.000000
vn 0.000000 1.000000 0.000000
vn 0.000000 1.000000 0.000000
vn 0.000000 1.000000 0.000000
vn 0.000000 1.000000 0.000000
vn 0.000000 1.000000 0.000000
vn 0.000000 1.000000 0.000000
vn 0.000000 1.000000 0.000000
vn 0.000000 1.000000 0.000000
vn 0.000000 1.000000 0.000000
vn 0.000000 1.000000 0.000000
vn 0.000000 1.000000 0.000000
vn 0.000000 1.000000 0.000000
vn 0.000000 1.000000 0.000000
vn 0.000000 1.000000 0.000000
vn 0.000000 1.000000 0.000000
vn 0.000000 1.000000 0.000000
vn 0.000000 1.000000 0.000000
vn 0.000000 1.000000 0.000000
vn 0.000000 1.000000 0.000000
vn 0.000000 1.000000 0.000000
vn 0.000000 1.000000 0.000000
vn 0.000000 1.000000 0.000000
vn 0.000000 1.000000 0.000000
vn 0.000000 1.000000 0.000000
vn 0.000000 1.000000 0.000000
vn 0.000000 1.000000 0.000000
vn 0.000000 1.000000 0.000000
vn 0.000000 1.000000 0.000000
vn 0.000000 1.000000 0.000000
vn 0.000000 1.000000 0.000000
vn 0.000000 1.000000 0.000000
vn 0.000000 1.000000 0.000000
vn 0.000000 1.000000 0.000000
vn 0.000000 1.000000 0.000000
vn 0.000000 1.000000 0.000000
vn 0.000000 0.000000 1.000000
vn 0.000000 0.000000 1.000000
vn 0.000000 0.000000 1.000000
vn 0.000000 0.000000 1.000000
vn -1.000000 0.000000 0.000000
vn -1.000000 0.000000 0.000000
vn -1.000000 0.000000 0.000000
vn -1.000000 0.000000 0.000000
vn 0.000000 0.000000 1.000000
vn 0.000000 0.000000 1.000000
vn 0.000000 0.000000 1.000000
vn 0.000000 0.000000 1.000000
vn 0.000000 0.000000 1.000000
vn 0.000000 0.000000 1.000000
vn 0.000000 0.000000 1.000000
vn 0.000000 0.000000 1.000000
vn 0.000000 0.000000 1.000000
vn 0.000000 0.000000 1.000000
vn 0.000000 0.000000 1.000000
vn 0.000000 0.000000 1.000000
vn 0.000000 0.000000 1.000000
vn 0.000000 0.000000 1.000000
vn 0.000000 0.000000 1.000000
vn 0.000000 0.000000 1.000000
vn 0.000000 0.000000 1.000000
vn 0.000000 0.000000 1.000000
vn 0.000000 0.000000 1.000000
vn 0.000000 0.000000 1.000000
vn 0.000000 0.000000 1.000000
vn 0.000000 0.000000 1.000000
vn 0.000000 0.000000 1.000000
vn 0.000000 0.000000 1.000000
vn 0.000000 0.000000 1.000000
vn 0.000000 0.000000 1.000000
vn 0.000000 0.000000 1.000000
vn 0.000000 0.000000 1.000000
vn 0.000000 0.000000 1.000000
vn 0.000000 0.000000 1.000000
vn 0.000000 0.000000 1.000000
vn 0.000000 0.000000 1.000000
vn 0.000000 0.000000 1.000000
vn 0.000000 0.000000 1.000000
vn 0.000000 0.000000 1.000000
vn 0.000000 0.000000 1.000000
vn 0.000000 0.000000 1.000000
vn 0.000000 0.000000 1.000000
vn 0.000000 0.000000 1.000000
vn 0.000000 0.000000 1.000000
vn 1.000000 0.000000 0.000000
vn 1.000000 0.000000 0.000000
vn 1.000000 0.000000 0.000000
vn 1.000000 0.000000 0.000000
vn -1.000000 0.000000 0.000000
vn -1.000000 0.000000 0.000000
vn -1.000000 0.000000 0.000000
vn -1.000000 0.000000 0.000000
vn 1.000000 0.000000 0.000000
vn 1.000000 0.000000 0.000000
vn 1.000000 0.000000 0.000000
vn 1.000000 0.000000 0.000000
vn -1.000000 0.000000 0.000000
vn -1.000000 0.000000 0.000000
vn -1.000000 0.000000 0.000000
vn -1.000000 0.000000 0.000000
vn 1.000000 0.000000 0.000000
vn 1.000000 0.000000 0.000000
vn 1.000000 0.000000 0.000000
vn 1.000000 0.000000 0.000000
vn -1.000000 0.000000 0.000000
vn -1.000000 0.000000 0.000000
vn -1.000000 0.000000 0.000000
vn -1.000000 0.000000 0.000000
vn 1.000000 0.000000 0.000000
vn 1.000000 0.000000 0.000000
vn 1.000000 0.000000 0.000000
vn 1.000000 0.000000 0.000000
vn -1.000000 0.000000 0.000000
vn -1.000000 0.000000 0.000000
vn -1.000000 0.000000 0.000000
vn -1.000000 0.000000 0.000000
vn 1.000000 0.000000 0.000000
vn 1.000000 0.000000 0.000000
vn 1.000000 0.000000 0.000000
vn 1.000000 0.000000 0.000000
vn -1.000000 0.000000 0.000000
vn -1.000000 0.000000 0.000000
vn -1.000000 0.000000 0.000000
vn -1.000000 0.000000 0.000000
vn 1.000000 0.000000 0.000000
vn 1.000000 0.000000 0.000000
vn 1.000000 0.000000 0.000000
vn 1.000000 0.000000 0.000000
f 1/1/1 2/2/2 4/3/3
f 4/3/3 2/2/2 3/4/4
f 2/2/2 5/5/5 3/4/4
f 3/4/4 5/5/5 6/6/6
f 5/5/5 7/7/7 6/6/6
f 6/6/6 7/7/7 8/8/8
f 7/7/7 9/9/9 8/8/8
f 8/8/8 9/9/9 10/10/10
f 9/9/9 11/11/11 10/10/10
f 10/10/10 11/11/11 12/12/12
f 11/11/11 13/13/13 12/12/12
f 12/12/12 13/13/13 14/14/14
f 13/13/13 15/15/15 14/14/14
f 14/14/14 15/15/15 16/16/16
f 15/15/15 17/17/17 16/16/16
f 16/16/16 17/17/17 18/18/18
f 17/17/17 19/19/19 18/18/18
f 18/18/18 19/19/19 20/20/20
f 19/19/19 21/21/21 20/20/20
f 20/20/20 21/21/21 22/22/22
f 21/21/21 23/23/23 22/22/22
f 22/22/22 23/23/23 24/24/24
f 4/3/3 3/4/4 26/25/25
f 26/25/25 3/4/4 25/26/26
f 3/4/4 6/6/6 25/26/26
f 25/26/26 6/6/6 27/27/27
f 6/6/6 8/8/8 27/27/27
f 27/27/27 8/8/8 28/28/28
f 8/8/8 10/10/10 28/28/28
f 28/28/28 10/10/10 29/29/29
f 10/10/10 12/12/12 29/29/29
f 29/29/29 12/12/12 30/30/30
f 12/12/12 14/14/14 30/30/30
f 30/30/30 14/14/14 31/31/31
f 14/14/14 16/16/16 31/31/31
f 31/31/31 16/16/16 32/32/32
f 16/16/16 18/18/18 32/32/32
f 32/32/32 18/18/18 33/33/33
f 18/18/18 20/20/20 33/33/33
f 33/33/33 20/20/20 34/34/34
f 20/20/20 22/22/22 34/34/34
f 34/34/34 22/22/22 35/35/35
f 22/22/22 24/24/24 35/35/35
f 35/35/35 24/24/24 36/36/36
f 26/25/25 25/26/26 38/37/37
f 38/37/37 25/26/26 37/38/38
f 25/26/26 27/27/27 37/38/38
f 37/38/38 27/27/27 39/39/39
f 27/27/27 28/28/28 39/39/39
f 39/39/39 28/28/28 40/40/40
f 28/28/28 29/29/29 40/40/40
f 40/40/40 29/29/29 41/41/41
f 29/29/29 30/30/30 41/41/41
f 41/41/41 30/30/30 42/42/42
f 30/30/30 31/31/31 42/42/42
f 42/42/42 31/31/31 43/43/43
f 31/31/31 32/32/32 43/43/43
f 43/43/43 32/32/32 44/44/44
f 32/32/32 33/33/33 44/44/44
f 44/44/44 33/33/33 45/45/45
f 33/33/33 34/34/34 45/45/45
f 45/45/45 34/34/34 46/46/46
f 34/34/34 35/35/35 46/46/46
f 46/46/46 35/35/35 47/47/47
f 35/35/35 36/36/36 47/47/47
f 47/47/47 36/36/36 48/48/48
f 38/37/37 37/38/38 50/49/49
f 50/49/49 37/38/38 49/50/50
f 37/38/38 39/39/39 49/50/50
f 49/50/50 39/39/39 51/51/51
f 39/39/39 40/40/40 51/51/51
f 51/51/51 40/40/40 52/52/52
f 40/40/40 41/41/41 52/52/52
f 52/52/52 41/41/41 53/53/53
f 41/41/41 42/42/42 53/53/53
f 53/53/53 42/42/42 54/54/54
f 42/42/42 43/43/43 54/54/54
f 54/54/54 43/43/43 55/55/55
f 43/43/43 44/44/44 55/55/55
f 55/55/55 44/44/44 56/56/56
f 44/44/44 45/45/45 56/56/56
f 56/56/56 45/45/45 57/57/57
f 45/45/45 46/46/46 57/57/57
f 57/57/57 46/46/46 58/58/58
f 46/46/46 47/47/47 58/58/58
f 58/58/58 47/47/47 59/59/59
f 47/47/47 48/48/48 59/59/59
f 59/59/59 48/48/48 60/60/60
f 50/49/49 49/50/50 62/61/61
f 62/61/61 49/50/50 61/62/62
f 49/50/50 51/51/51 61/62/62
f 61/62/62 51/51/51 63/63/63
f 51/51/51 52/52/52 63/63/63
f 63/63/63 52/52/52 64/64/64
f 52/52/52 53/53/53 64/64/64
f 64/64/64 53/53/53 65/65/65
f 53/53/53 54/54/54 65/65/65
f 65/65/65 54/54/54 66/66/66
f 54/54/54 55/55/55 66/66/66
f 66/66/66 55/55/55 67/67/67
f 55/55/55 56/56/56 67/67/67
f 67/67/67 56/56/56 68/68/68
f 56/56/56 57/57/57 68/68/68
f 68/68/68 57/57/57 69/69/69
f 57/57/57 58/58/58 69/69/69
f 69/69/69 58/58/58 70/70/70
f 58/58/58 59/59/59 70/70/70
f 70/70/70 59/59/59 71/71/71
f 59/59/59 60/60/60 71/71/71
f 71/71/71 60/60/60 72/72/72
f 62/61/61 61/62/62 74/73/73
f 74/73/73 61/62/62 73/74/74
f 61/62/62 63/63/63 73/74/74
f 73/74/74 63/63/63 75/75/75
f 63/63/63 64/64/64 75/75/75
f 75/75/75 64/64/64 76/76/76
f 64/64/64 65/65/65 76/76/76
f 76/76/76 65/65/65 77/77/77
f 65/65/65 66/66/66 77/77/77
f 77/77/77 66/66/66 78/78/78
f 66/66/66 67/67/67 78/78/78
f 78/78/78 67/67/67 79/79/79
f 67/67/67 68/68/68 79/79/79
f 79/79/79 68/68/68 80/80/80
f 68/68/68 69/69/69 80/80/80
f 80/80/80 69/69/69 81/81/81
f 69/69/69 70/70/70 81/81/81
f 81/81/81 70/70/70 82/82/82
f 70/70/70 71/71/71 82/82/82
f 82/82/82 71/71/71 83/83/83
f 71/71/71 72/72/72 83/83/83
f 83/83/83 72/72/72 84/84/84
f 85/85/85 86/86/86 1/1/87
f 1/1/87 86/86/86 2/2/88
f 87/87/89 85/85/90 4/3/91
f 4/3/91 85/85/90 1/1/92
f 86/86/93 88/88/94 2/2/95
f 2/2/95 88/88/94 5/5/96
f 88/88/97 89/89/98 5/5/99
f 5/5/99 89/89/98 7/7/100
f 89/89/101 90/90/102 7/7/103
f 7/7/103 90/90/102 9/9/104
f 90/90/105 91/91/106 9/9/107
f 9/9/107 91/91/106 11/11/108
f 91/91/109 92/92/110 11/11/111
f 11/11/111 92/92/110 13/13/112
f 92/92/113 93/93/114 13/13/115
f 13/13/115 93/93/114 15/15/116
f 93/93/117 94/94/118 15/15/119
f 15/15/119 94/94/118 17/17/120
f 94/94/121 95/95/122 17/17/123
f 17/17/123 95/95/122 19/19/124
f 95/95/125 96/96/126 19/19/127
f 19/19/127 96/96/126 21/21/128
f 96/96/129 97/97/130 21/21/131
f 21/21/131 97/97/130 23/23/132
f 97/97/133 98/98/134 23/23/135
f 23/23/135 98/98/134 24/24/136
f 99/99/137 87/87/138 26/25/139
f 26/25/139 87/87/138 4/3/140
f 98/98/141 100/100/142 24/24/143
f 24/24/143 100/100/142 36/36/144
f 101/101/145 99/99/146 38/37/147
f 38/37/147 99/99/146 26/25/148
f 100/100/149 102/102/150 36/36/151
f 36/36/151 102/102/150 48/48/152
f 103/103/153 101/101/154 50/49/155
f 50/49/155 101/101/154 38/37/156
f 102/102/157 104/104/158 48/48/159
f 48/48/159 104/104/158 60/60/160
f 105/105/161 103/103/162 62/61/163
f 62/61/163 103/103/162 50/49/164
f 104/104/165 106/106/166 60/60/167
f 60/60/167 106/106/166 72/72/168
f 107/107/169 105/105/170 74/73/171
f 74/73/171 105/105/170 62/61/172
f 106/106/173 108/108/174 72/72/175
f 72/72/175 108/108/174 84/84/176
