# The units used in this file are centimeters.
v -76.499992 -4.500000 27.000008
v -73.499992 -4.500000 27.000008
v -70.499992 -4.500000 27.000008
v -67.499992 -4.500000 27.000008
v -64.499992 -4.500000 27.000008
v -61.499992 -4.500000 27.000008
v -58.499992 -4.500000 27.000008
v -55.499992 -4.500000 27.000008
v -52.499992 -4.500000 27.000008
v -49.499992 -4.500000 27.000008
v -46.499992 -4.500000 27.000008
v -76.499992 -4.500000 24.000008
v -73.499992 -4.500000 24.000008
v -70.499992 -4.500000 24.000008
v -67.499992 -4.500000 24.000008
v -64.499992 -4.500000 24.000008
v -61.499992 -4.500000 24.000008
v -58.499992 -4.500000 24.000008
v -55.499992 -4.500000 24.000008
v -52.499992 -4.500000 24.000008
v -49.499992 -4.500000 24.000008
v -46.499992 -4.500000 24.000008
v -76.499992 -4.500000 21.000008
v -73.499992 -4.500000 21.000008
v -70.499992 -4.500000 21.000008
v -67.499992 -4.500000 21.000008
v -64.499992 -4.500000 21.000008
v -61.499992 -4.500000 21.000008
v -58.499992 -4.500000 21.000008
v -55.499992 -4.500000 21.000008
v -52.499992 -4.500000 21.000008
v -49.499992 -4.500000 21.000008
v -46.499992 -4.500000 21.000008
v -76.499992 -4.500000 18.000008
v -73.499992 -4.500000 18.000008
v -70.499992 -4.500000 18.000008
v -67.499992 -4.500000 18.000008
v -64.499992 -4.500000 18.000008
v -61.499992 -4.500000 18.000008
v -58.499992 -4.500000 18.000008
v -55.499992 -4.500000 18.000008
v -52.499992 -4.500000 18.000008
v -49.499992 -4.500000 18.000008
v -46.499992 -4.500000 18.000008
v -76.499992 -4.500000 15.000008
v -73.499992 -4.500000 15.000008
v -70.499992 -4.500000 15.000008
v -67.499992 -4.500000 15.000008
v -64.499992 -4.500000 15.000008
v -61.499992 -4.500000 15.000008
v -58.499992 -4.500000 15.000008
v -55.499992 -4.500000 15.000008
v -52.499992 -4.500000 15.000008
v -49.499992 -4.500000 15.000008
v -46.499992 -4.500000 15.000008
v -76.499992 -4.500000 12.000008
v -73.499992 -4.500000 12.000008
v -70.499992 -4.500000 12.000008
v -67.499992 -4.500000 12.000008
v -64.499992 -4.500000 12.000008
v -61.499992 -4.500000 12.000008
v -58.499992 -4.500000 12.000008
v -55.499992 -4.500000 12.000008
v -52.499992 -4.500000 12.000008
v -49.499992 -4.500000 12.000008
v -46.499992 -4.500000 12.000008
v -76.499992 -4.500000 9.000008
v -73.499992 -4.500000 9.000008
v -70.499992 -4.500000 9.000008
v -67.499992 -4.500000 9.000008
v -64.499992 -4.500000 9.000008
v -61.499992 -4.500000 9.000008
v -58.499992 -4.500000 9.000008
v -55.499992 -4.500000 9.000008
v -52.499992 -4.500000 9.000008
v -49.499992 -4.500000 9.000008
v -46.499992 -4.500000 9.000008
v -76.499992 -4.500000 6.000008
v -73.499992 -4.500000 6.000008
v -70.499992 -4.500000 6.000008
v -67.499992 -4.500000 6.000008
v -64.499992 -4.500000 6.000008
v -61.499992 -4.500000 6.000008
v -58.499992 -4.500000 6.000008
v -55.499992 -4.500000 6.000008
v -52.499992 -4.500000 6.000008
v -49.499992 -4.500000 6.000008
v -46.499992 -4.500000 6.000008
v -76.499992 -4.500000 3.000008
v -73.499992 -4.500000 3.000008
v -70.499992 -4.500000 3.000008
v -67.499992 -4.500000 3.000008
v -64.499992 -4.500000 3.000008
v -61.499992 -4.500000 3.000008
v -58.499992 -4.500000 3.000008
v -55.499992 -4.500000 3.000008
v -52.499992 -4.500000 3.000008
v -49.499992 -4.500000 3.000008
v -46.499992 -4.500000 3.000008
v -76.499992 -4.500000 0.000008
v -73.499992 -4.500000 0.000008
v -70.499992 -4.500000 0.000008
v -67.499992 -4.500000 0.000008
v -64.499992 -4.500000 0.000008
v -61.499992 -4.500000 0.000008
v -58.499992 -4.500000 0.000008
v -55.499992 -4.500000 0.000008
v -52.499992 -4.500000 0.000008
v -49.499992 -4.500000 0.000008
v -46.499992 -4.500000 0.000008
v -76.499992 -4.500000 -2.999992
v -73.499992 -4.500000 -2.999992
v -70.499992 -4.500000 -2.999992
v -67.499992 -4.500000 -2.999992
v -64.499992 -4.500000 -2.999992
v -61.499992 -4.500000 -2.999992
v -58.499992 -4.500000 -2.999992
v -55.499992 -4.500000 -2.999992
v -52.499992 -4.500000 -2.999992
v -49.499992 -4.500000 -2.999992
v -46.499992 -4.500000 -2.999992
v -76.499992 -4.500000 -5.999992
v -73.499992 -4.500000 -5.999992
v -70.499992 -4.500000 -5.999992
v -67.499992 -4.500000 -5.999992
v -64.499992 -4.500000 -5.999992
v -61.499992 -4.500000 -5.999992
v -58.499992 -4.500000 -5.999992
v -55.499992 -4.500000 -5.999992
v -52.499992 -4.500000 -5.999992
v -49.499992 -4.500000 -5.999992
v -46.499992 -4.500000 -5.999992
v -76.499992 -4.500000 -8.999992
v -73.499992 -4.500000 -8.999992
v -70.499992 -4.500000 -8.999992
v -67.499992 -4.500000 -8.999992
v -64.499992 -4.500000 -8.999992
v -61.499992 -4.500000 -8.999992
v -58.499992 -4.500000 -8.999992
v -55.499992 -4.500000 -8.999992
v -52.499992 -4.500000 -8.999992
v -49.499992 -4.500000 -8.999992
v -46.499992 -4.500000 -8.999992
v -76.499992 -4.500000 -11.999992
v -73.499992 -4.500000 -11.999992
v -70.499992 -4.500000 -11.999992
v -67.499992 -4.500000 -11.999992
v -64.499992 -4.500000 -11.999992
v -61.499992 -4.500000 -11.999992
v -58.499992 -4.500000 -11.999992
v -55.499992 -4.500000 -11.999992
v -52.499992 -4.500000 -11.999992
v -49.499992 -4.500000 -11.999992
v -46.499992 -4.500000 -11.999992
v -76.499992 -4.500000 -14.999992
v -73.499992 -4.500000 -14.999992
v -70.499992 -4.500000 -14.999992
v -67.499992 -4.500000 -14.999992
v -64.499992 -4.500000 -14.999992
v -61.499992 -4.500000 -14.999992
v -58.499992 -4.500000 -14.999992
v -55.499992 -4.500000 -14.999992
v -52.499992 -4.500000 -14.999992
v -49.499992 -4.500000 -14.999992
v -46.499992 -4.500000 -14.999992
vt 0.000000 0.000000
vt 0.200000 0.000000
vt 0.200000 0.200000
vt 0.000000 0.200000
vt 0.400000 0.000000
vt 0.400000 0.200000
vt 0.600000 0.000000
vt 0.600000 0.200000
vt 0.800000 0.000000
vt 0.800000 0.200000
vt 1.000000 0.000000
vt 1.000000 0.200000
vt 1.200000 0.000000
vt 1.200000 0.200000
vt 1.400000 0.000000
vt 1.400000 0.200000
vt 1.600000 0.000000
vt 1.600000 0.200000
vt 1.800000 0.000000
vt 1.800000 0.200000
vt 2.000000 0.000000
vt 2.000000 0.200000
vt 0.200000 0.400000
vt 0.000000 0.400000
vt 0.400000 0.400000
vt 0.600000 0.400000
vt 0.800000 0.400000
vt 1.000000 0.400000
vt 1.200000 0.400000
vt 1.400000 0.400000
vt 1.600000 0.400000
vt 1.800000 0.400000
vt 2.000000 0.400000
vt 0.200000 0.600000
vt 0.000000 0.600000
vt 0.400000 0.600000
vt 0.600000 0.600000
vt 0.800000 0.600000
vt 1.000000 0.600000
vt 1.200000 0.600000
vt 1.400000 0.600000
vt 1.600000 0.600000
vt 1.800000 0.600000
vt 2.000000 0.600000
vt 0.200000 0.800000
vt 0.000000 0.800000
vt 0.400000 0.800000
vt 0.600000 0.800000
vt 0.800000 0.800000
vt 1.000000 0.800000
vt 1.200000 0.800000
vt 1.400000 0.800000
vt 1.600000 0.800000
vt 1.800000 0.800000
vt 2.000000 0.800000
vt 0.200000 1.000000
vt 0.000000 1.000000
vt 0.400000 1.000000
vt 0.600000 1.000000
vt 0.800000 1.000000
vt 1.000000 1.000000
vt 1.200000 1.000000
vt 1.400000 1.000000
vt 1.600000 1.000000
vt 1.800000 1.000000
vt 2.000000 1.000000
vt 0.200000 1.200000
vt 0.000000 1.200000
vt 0.400000 1.200000
vt 0.600000 1.200000
vt 0.800000 1.200000
vt 1.000000 1.200000
vt 1.200000 1.200000
vt 1.400000 1.200000
vt 1.600000 1.200000
vt 1.800000 1.200000
vt 2.000000 1.200000
vt 0.200000 1.400000
vt 0.000000 1.400000
vt 0.400000 1.400000
vt 0.600000 1.400000
vt 0.800000 1.400000
vt 1.000000 1.400000
vt 1.200000 1.400000
vt 1.400000 1.400000
vt 1.600000 1.400000
vt 1.800000 1.400000
vt 2.000000 1.400000
vt 0.200000 1.600000
vt 0.000000 1.600000
vt 0.400000 1.600000
vt 0.600000 1.600000
vt 0.800000 1.600000
vt 1.000000 1.600000
vt 1.200000 1.600000
vt 1.400000 1.600000
vt 1.600000 1.600000
vt 1.800000 1.600000
vt 2.000000 1.600000
vt 0.200000 1.800000
vt 0.000000 1.800000
vt 0.400000 1.800000
vt 0.600000 1.800000
vt 0.800000 1.800000
vt 1.000000 1.800000
vt 1.200000 1.800000
vt 1.400000 1.800000
vt 1.600000 1.800000
vt 1.800000 1.800000
vt 2.000000 1.800000
vt 0.200000 2.000000
vt 0.000000 2.000000
vt 0.400000 2.000000
vt 0.600000 2.000000
vt 0.800000 2.000000
vt 1.000000 2.000000
vt 1.200000 2.000000
vt 1.400000 2.000000
vt 1.600000 2.000000
vt 1.800000 2.000000
vt 2.000000 2.000000
vt 0.200000 2.200000
vt 0.000000 2.200000
vt 0.400000 2.200000
vt 0.600000 2.200000
vt 0.800000 2.200000
vt 1.000000 2.200000
vt 1.200000 2.200000
vt 1.400000 2.200000
vt 1.600000 2.200000
vt 1.800000 2.200000
vt 2.000000 2.200000
vt 0.200000 2.400000
vt 0.000000 2.400000
vt 0.400000 2.400000
vt 0.600000 2.400000
vt 0.800000 2.400000
vt 1.000000 2.400000
vt 1.200000 2.400000
vt 1.400000 2.400000
vt 1.600000 2.400000
vt 1.800000 2.400000
vt 2.000000 2.400000
vt 0.200000 2.600000
vt 0.000000 2.600000
vt 0.400000 2.600000
vt 0.600000 2.600000
vt 0.800000 2.600000
vt 1.000000 2.600000
vt 1.200000 2.600000
vt 1.400000 2.600000
vt 1.600000 2.600000
vt 1.800000 2.600000
vt 2.000000 2.600000
vt 0.200000 2.800000
vt 0.000000 2.800000
vt 0.400000 2.800000
vt 0.600000 2.800000
vt 0.800000 2.800000
vt 1.000000 2.800000
vt 1.200000 2.800000
vt 1.400000 2.800000
vt 1.600000 2.800000
vt 1.800000 2.800000
vt 2.000000 2.800000
vn 0.000000 1.000000 0.000000
vn 0.000000 1.000000 0.000000
vn 0.000000 1.000000 0.000000
vn 0.000000 1.000000 0.000000
vn 0.000000 1.000000 0.000000
vn 0.000000 1.000000 0.000000
vn 0.000000 1.000000 0.000000
vn 0.000000 1.000000 0.000000
vn 0.000000 1.000000 0.000000
vn 0.000000 1.000000 0.000000
vn 0.000000 1.000000 0.000000
vn 0.000000 1.000000 0.000000
vn 0.000000 1.000000 0.000000
vn 0.000000 1.000000 0.000000
vn 0.000000 1.000000 0.000000
vn 0.000000 1.000000 0.000000
vn 0.000000 1.000000 0.000000
vn 0.000000 1.000000 0.000000
vn 0.000000 1.000000 0.000000
vn 0.000000 1.000000 0.000000
vn 0.000000 1.000000 0.000000
vn 0.000000 1.000000 0.000000
vn 0.000000 1.000000 0.000000
vn 0.000000 1.000000 0.000000
vn 0.000000 1.000000 0.000000
vn 0.000000 1.000000 0.000000
vn 0.000000 1.000000 0.000000
vn 0.000000 1.000000 0.000000
vn 0.000000 1.000000 0.000000
vn 0.000000 1.000000 0.000000
vn 0.000000 1.000000 0.000000
vn 0.000000 1.000000 0.000000
vn 0.000000 1.000000 0.000000
vn 0.000000 1.000000 0.000000
vn 0.000000 1.000000 0.000000
vn 0.000000 1.000000 0.000000
vn 0.000000 1.000000 0.000000
vn 0.000000 1.000000 0.000000
vn 0.000000 1.000000 0.000000
vn 0.000000 1.000000 0.000000
vn 0.000000 1.000000 0.000000
vn 0.000000 1.000000 0.000000
vn 0.000000 1.000000 0.000000
vn 0.000000 1.000000 0.000000
vn 0.000000 1.000000 0.000000
vn 0.000000 1.000000 0.000000
vn 0.000000 1.000000 0.000000
vn 0.000000 1.000000 0.000000
vn 0.000000 1.000000 0.000000
vn 0.000000 1.000000 0.000000
vn 0.000000 1.000000 0.000000
vn 0.000000 1.000000 0.000000
vn 0.000000 1.000000 0.000000
vn 0.000000 1.000000 0.000000
vn 0.000000 1.000000 0.000000
vn 0.000000 1.000000 0.000000
vn 0.000000 1.000000 0.000000
vn 0.000000 1.000000 0.000000
vn 0.000000 1.000000 0.000000
vn 0.000000 1.000000 0.000000
vn 0.000000 1.000000 0.000000
vn 0.000000 1.000000 0.000000
vn 0.000000 1.000000 0.000000
vn 0.000000 1.000000 0.000000
vn 0.000000 1.000000 0.000000
vn 0.000000 1.000000 0.000000
vn 0.000000 1.000000 0.000000
vn 0.000000 1.000000 0.000000
vn 0.000000 1.000000 0.000000
vn 0.000000 1.000000 0.000000
vn 0.000000 1.000000 0.000000
vn 0.000000 1.000000 0.000000
vn 0.000000 1.000000 0.000000
vn 0.000000 1.000000 0.000000
vn 0.000000 1.000000 0.000000
vn 0.000000 1.000000 0.000000
vn 0.000000 1.000000 0.000000
vn 0.000000 1.000000 0.000000
vn 0.000000 1.000000 0.000000
vn 0.000000 1.000000 0.000000
vn 0.000000 1.000000 0.000000
vn 0.000000 1.000000 0.000000
vn 0.000000 1.000000 0.000000
vn 0.000000 1.000000 0.000000
vn 0.000000 1.000000 0.000000
vn 0.000000 1.000000 0.000000
vn 0.000000 1.000000 0.000000
vn 0.000000 1.000000 0.000000
vn 0.000000 1.000000 0.000000
vn 0.000000 1.000000 0.000000
vn 0.000000 1.000000 0.000000
vn 0.000000 1.000000 0.000000
vn 0.000000 1.000000 0.000000
vn 0.000000 1.000000 0.000000
vn 0.000000 1.000000 0.000000
vn 0.000000 1.000000 0.000000
vn 0.000000 1.000000 0.000000
vn 0.000000 1.000000 0.000000
vn 0.000000 1.000000 0.000000
vn 0.000000 1.000000 0.000000
vn 0.000000 1.000000 0.000000
vn 0.000000 1.000000 0.000000
vn 0.000000 1.000000 0.000000
vn 0.000000 1.000000 0.000000
vn 0.000000 1.000000 0.000000
vn 0.000000 1.000000 0.000000
vn 0.000000 1.000000 0.000000
vn 0.000000 1.000000 0.000000
vn 0.000000 1.000000 0.000000
vn 0.000000 1.000000 0.000000
vn 0.000000 1.000000 0.000000
vn 0.000000 1.000000 0.000000
vn 0.000000 1.000000 0.000000
vn 0.000000 1.000000 0.000000
vn 0.000000 1.000000 0.000000
vn 0.000000 1.000000 0.000000
vn 0.000000 1.000000 0.000000
vn 0.000000 1.000000 0.000000
vn 0.000000 1.000000 0.000000
vn 0.000000 1.000000 0.000000
vn 0.000000 1.000000 0.000000
vn 0.000000 1.000000 0.000000
vn 0.000000 1.000000 0.000000
vn 0.000000 1.000000 0.000000
vn 0.000000 1.000000 0.000000
vn 0.000000 1.000000 0.000000
vn 0.000000 1.000000 0.000000
vn 0.000000 1.000000 0.000000
vn 0.000000 1.000000 0.000000
vn 0.000000 1.000000 0.000000
vn 0.000000 1.000000 0.000000
vn 0.000000 1.000000 0.000000
vn 0.000000 1.000000 0.000000
vn 0.000000 1.000000 0.000000
vn 0.000000 1.000000 0.000000
vn 0.000000 1.000000 0.000000
vn 0.000000 1.000000 0.000000
vn 0.000000 1.000000 0.000000
vn 0.000000 1.000000 0.000000
vn 0.000000 1.000000 0.000000
vn 0.000000 1.000000 0.000000
vn 0.000000 1.000000 0.000000
vn 0.000000 1.000000 0.000000
vn 0.000000 1.000000 0.000000
vn 0.000000 1.000000 0.000000
vn 0.000000 1.000000 0.000000
vn 0.000000 1.000000 0.000000
vn 0.000000 1.000000 0.000000
vn 0.000000 1.000000 0.000000
vn 0.000000 1.000000 0.000000
vn 0.000000 1.000000 0.000000
vn 0.000000 1.000000 0.000000
vn 0.000000 1.000000 0.000000
vn 0.000000 1.000000 0.000000
vn 0.000000 1.000000 0.000000
vn 0.000000 1.000000 0.000000
vn 0.000000 1.000000 0.000000
vn 0.000000 1.000000 0.000000
vn 0.000000 1.000000 0.000000
vn 0.000000 1.000000 0.000000
vn 0.000000 1.000000 0.000000
vn 0.000000 1.000000 0.000000
vn 0.000000 1.000000 0.000000
vn 0.000000 1.000000 0.000000
vn 0.000000 1.000000 0.000000
f 1/1/1 2/2/2 12/4/3
f 12/4/3 2/2/2 13/3/4
f 2/2/2 3/5/5 13/3/4
f 13/3/4 3/5/5 14/6/6
f 3/5/5 4/7/7 14/6/6
f 14/6/6 4/7/7 15/8/8
f 4/7/7 5/9/9 15/8/8
f 15/8/8 5/9/9 16/10/10
f 5/9/9 6/11/11 16/10/10
f 16/10/10 6/11/11 17/12/12
f 6/11/11 7/13/13 17/12/12
f 17/12/12 7/13/13 18/14/14
f 7/13/13 8/15/15 18/14/14
f 18/14/14 8/15/15 19/16/16
f 8/15/15 9/17/17 19/16/16
f 19/16/16 9/17/17 20/18/18
f 9/17/17 10/19/19 20/18/18
f 20/18/18 10/19/19 21/20/20
f 10/19/19 11/21/21 21/20/20
f 21/20/20 11/21/21 22/22/22
f 12/4/3 13/3/4 23/24/23
f 23/24/23 13/3/4 24/23/24
f 13/3/4 14/6/6 24/23/24
f 24/23/24 14/6/6 25/25/25
f 14/6/6 15/8/8 25/25/25
f 25/25/25 15/8/8 26/26/26
f 15/8/8 16/10/10 26/26/26
f 26/26/26 16/10/10 27/27/27
f 16/10/10 17/12/12 27/27/27
f 27/27/27 17/12/12 28/28/28
f 17/12/12 18/14/14 28/28/28
f 28/28/28 18/14/14 29/29/29
f 18/14/14 19/16/16 29/29/29
f 29/29/29 19/16/16 30/30/30
f 19/16/16 20/18/18 30/30/30
f 30/30/30 20/18/18 31/31/31
f 20/18/18 21/20/20 31/31/31
f 31/31/31 21/20/20 32/32/32
f 21/20/20 22/22/22 32/32/32
f 32/32/32 22/22/22 33/33/33
f 23/24/23 24/23/24 34/35/34
f 34/35/34 24/23/24 35/34/35
f 24/23/24 25/25/25 35/34/35
f 35/34/35 25/25/25 36/36/36
f 25/25/25 26/26/26 36/36/36
f 36/36/36 26/26/26 37/37/37
f 26/26/26 27/27/27 37/37/37
f 37/37/37 27/27/27 38/38/38
f 27/27/27 28/28/28 38/38/38
f 38/38/38 28/28/28 39/39/39
f 28/28/28 29/29/29 39/39/39
f 39/39/39 29/29/29 40/40/40
f 29/29/29 30/30/30 40/40/40
f 40/40/40 30/30/30 41/41/41
f 30/30/30 31/31/31 41/41/41
f 41/41/41 31/31/31 42/42/42
f 31/31/31 32/32/32 42/42/42
f 42/42/42 32/32/32 43/43/43
f 32/32/32 33/33/33 43/43/43
f 43/43/43 33/33/33 44/44/44
f 34/35/34 35/34/35 45/46/45
f 45/46/45 35/34/35 46/45/46
f 35/34/35 36/36/36 46/45/46
f 46/45/46 36/36/36 47/47/47
f 36/36/36 37/37/37 47/47/47
f 47/47/47 37/37/37 48/48/48
f 37/37/37 38/38/38 48/48/48
f 48/48/48 38/38/38 49/49/49
f 38/38/38 39/39/39 49/49/49
f 49/49/49 39/39/39 50/50/50
f 39/39/39 40/40/40 50/50/50
f 50/50/50 40/40/40 51/51/51
f 40/40/40 41/41/41 51/51/51
f 51/51/51 41/41/41 52/52/52
f 41/41/41 42/42/42 52/52/52
f 52/52/52 42/42/42 53/53/53
f 42/42/42 43/43/43 53/53/53
f 53/53/53 43/43/43 54/54/54
f 43/43/43 44/44/44 54/54/54
f 54/54/54 44/44/44 55/55/55
f 45/46/45 46/45/46 56/57/56
f 56/57/56 46/45/46 57/56/57
f 46/45/46 47/47/47 57/56/57
f 57/56/57 47/47/47 58/58/58
f 47/47/47 48/48/48 58/58/58
f 58/58/58 48/48/48 59/59/59
f 48/48/48 49/49/49 59/59/59
f 59/59/59 49/49/49 60/60/60
f 49/49/49 50/50/50 60/60/60
f 60/60/60 50/50/50 61/61/61
f 50/50/50 51/51/51 61/61/61
f 61/61/61 51/51/51 62/62/62
f 51/51/51 52/52/52 62/62/62
f 62/62/62 52/52/52 63/63/63
f 52/52/52 53/53/53 63/63/63
f 63/63/63 53/53/53 64/64/64
f 53/53/53 54/54/54 64/64/64
f 64/64/64 54/54/54 65/65/65
f 54/54/54 55/55/55 65/65/65
f 65/65/65 55/55/55 66/66/66
f 56/57/56 57/56/57 67/68/67
f 67/68/67 57/56/57 68/67/68
f 57/56/57 58/58/58 68/67/68
f 68/67/68 58/58/58 69/69/69
f 58/58/58 59/59/59 69/69/69
f 69/69/69 59/59/59 70/70/70
f 59/59/59 60/60/60 70/70/70
f 70/70/70 60/60/60 71/71/71
f 60/60/60 61/61/61 71/71/71
f 71/71/71 61/61/61 72/72/72
f 61/61/61 62/62/62 72/72/72
f 72/72/72 62/62/62 73/73/73
f 62/62/62 63/63/63 73/73/73
f 73/73/73 63/63/63 74/74/74
f 63/63/63 64/64/64 74/74/74
f 74/74/74 64/64/64 75/75/75
f 64/64/64 65/65/65 75/75/75
f 75/75/75 65/65/65 76/76/76
f 65/65/65 66/66/66 76/76/76
f 76/76/76 66/66/66 77/77/77
f 67/68/67 68/67/68 78/79/78
f 78/79/78 68/67/68 79/78/79
f 68/67/68 69/69/69 79/78/79
f 79/78/79 69/69/69 80/80/80
f 69/69/69 70/70/70 80/80/80
f 80/80/80 70/70/70 81/81/81
f 70/70/70 71/71/71 81/81/81
f 81/81/81 71/71/71 82/82/82
f 71/71/71 72/72/72 82/82/82
f 82/82/82 72/72/72 83/83/83
f 72/72/72 73/73/73 83/83/83
f 83/83/83 73/73/73 84/84/84
f 73/73/73 74/74/74 84/84/84
f 84/84/84 74/74/74 85/85/85
f 74/74/74 75/75/75 85/85/85
f 85/85/85 75/75/75 86/86/86
f 75/75/75 76/76/76 86/86/86
f 86/86/86 76/76/76 87/87/87
f 76/76/76 77/77/77 87/87/87
f 87/87/87 77/77/77 88/88/88
f 78/79/78 79/78/79 89/90/89
f 89/90/89 79/78/79 90/89/90
f 79/78/79 80/80/80 90/89/90
f 90/89/90 80/80/80 91/91/91
f 80/80/80 81/81/81 91/91/91
f 91/91/91 81/81/81 92/92/92
f 81/81/81 82/82/82 92/92/92
f 92/92/92 82/82/82 93/93/93
f 82/82/82 83/83/83 93/93/93
f 93/93/93 83/83/83 94/94/94
f 83/83/83 84/84/84 94/94/94
f 94/94/94 84/84/84 95/95/95
f 84/84/84 85/85/85 95/95/95
f 95/95/95 85/85/85 96/96/96
f 85/85/85 86/86/86 96/96/96
f 96/96/96 86/86/86 97/97/97
f 86/86/86 87/87/87 97/97/97
f 97/97/97 87/87/87 98/98/98
f 87/87/87 88/88/88 98/98/98
f 98/98/98 88/88/88 99/99/99
f 89/90/89 90/89/90 100/101/100
f 100/101/100 90/89/90 101/100/101
f 90/89/90 91/91/91 101/100/101
f 101/100/101 91/91/91 102/102/102
f 91/91/91 92/92/92 102/102/102
f 102/102/102 92/92/92 103/103/103
f 92/92/92 93/93/93 103/103/103
f 103/103/103 93/93/93 104/104/104
f 93/93/93 94/94/94 104/104/104
f 104/104/104 94/94/94 105/105/105
f 94/94/94 95/95/95 105/105/105
f 105/105/105 95/95/95 106/106/106
f 95/95/95 96/96/96 106/106/106
f 106/106/106 96/96/96 107/107/107
f 96/96/96 97/97/97 107/107/107
f 107/107/107 97/97/97 108/108/108
f 97/97/97 98/98/98 108/108/108
f 108/108/108 98/98/98 109/109/109
f 98/98/98 99/99/99 109/109/109
f 109/109/109 99/99/99 110/110/110
f 100/101/100 101/100/101 111/112/111
f 111/112/111 101/100/101 112/111/112
f 101/100/101 102/102/102 112/111/112
f 112/111/112 102/102/102 113/113/113
f 102/102/102 103/103/103 113/113/113
f 113/113/113 103/103/103 114/114/114
f 103/103/103 104/104/104 114/114/114
f 114/114/114 104/104/104 115/115/115
f 104/104/104 105/105/105 115/115/115
f 115/115/115 105/105/105 116/116/116
f 105/105/105 106/106/106 116/116/116
f 116/116/116 106/106/106 117/117/117
f 106/106/106 107/107/107 117/117/117
f 117/117/117 107/107/107 118/118/118
f 107/107/107 108/108/108 118/118/118
f 118/118/118 108/108/108 119/119/119
f 108/108/108 109/109/109 119/119/119
f 119/119/119 109/109/109 120/120/120
f 109/109/109 110/110/110 120/120/120
f 120/120/120 110/110/110 121/121/121
f 111/112/111 112/111/112 122/123/122
f 122/123/122 112/111/112 123/122/123
f 112/111/112 113/113/113 123/122/123
f 123/122/123 113/113/113 124/124/124
f 113/113/113 114/114/114 124/124/124
f 124/124/124 114/114/114 125/125/125
f 114/114/114 115/115/115 125/125/125
f 125/125/125 115/115/115 126/126/126
f 115/115/115 116/116/116 126/126/126
f 126/126/126 116/116/116 127/127/127
f 116/116/116 117/117/117 127/127/127
f 127/127/127 117/117/117 128/128/128
f 117/117/117 118/118/118 128/128/128
f 128/128/128 118/118/118 129/129/129
f 118/118/118 119/119/119 129/129/129
f 129/129/129 119/119/119 130/130/130
f 119/119/119 120/120/120 130/130/130
f 130/130/130 120/120/120 131/131/131
f 120/120/120 121/121/121 131/131/131
f 131/131/131 121/121/121 132/132/132
f 122/123/122 123/122/123 133/134/133
f 133/134/133 123/122/123 134/133/134
f 123/122/123 124/124/124 134/133/134
f 134/133/134 124/124/124 135/135/135
f 124/124/124 125/125/125 135/135/135
f 135/135/135 125/125/125 136/136/136
f 125/125/125 126/126/126 136/136/136
f 136/136/136 126/126/126 137/137/137
f 126/126/126 127/127/127 137/137/137
f 137/137/137 127/127/127 138/138/138
f 127/127/127 128/128/128 138/138/138
f 138/138/138 128/128/128 139/139/139
f 128/128/128 129/129/129 139/139/139
f 139/139/139 129/129/129 140/140/140
f 129/129/129 130/130/130 140/140/140
f 140/140/140 130/130/130 141/141/141
f 130/130/130 131/131/131 141/141/141
f 141/141/141 131/131/131 142/142/142
f 131/131/131 132/132/132 142/142/142
f 142/142/142 132/132/132 143/143/143
f 133/134/133 134/133/134 144/145/144
f 144/145/144 134/133/134 145/144/145
f 134/133/134 135/135/135 145/144/145
f 145/144/145 135/135/135 146/146/146
f 135/135/135 136/136/136 146/146/146
f 146/146/146 136/136/136 147/147/147
f 136/136/136 137/137/137 147/147/147
f 147/147/147 137/137/137 148/148/148
f 137/137/137 138/138/138 148/148/148
f 148/148/148 138/138/138 149/149/149
f 138/138/138 139/139/139 149/149/149
f 149/149/149 139/139/139 150/150/150
f 139/139/139 140/140/140 150/150/150
f 150/150/150 140/140/140 151/151/151
f 140/140/140 141/141/141 151/151/151
f 151/151/151 141/141/141 152/152/152
f 141/141/141 142/142/142 152/152/152
f 152/152/152 142/142/142 153/153/153
f 142/142/142 143/143/143 153/153/153
f 153/153/153 143/143/143 154/154/154
f 144/145/144 145/144/145 155/156/155
f 155/156/155 145/144/145 156/155/156
f 145/144/145 146/146/146 156/155/156
f 156/155/156 146/146/146 157/157/157
f 146/146/146 147/147/147 157/157/157
f 157/157/157 147/147/147 158/158/158
f 147/147/147 148/148/148 158/158/158
f 158/158/158 148/148/148 159/159/159
f 148/148/148 149/149/149 159/159/159
f 159/159/159 149/149/149 160/160/160
f 149/149/149 150/150/150 160/160/160
f 160/160/160 150/150/150 161/161/161
f 150/150/150 151/151/151 161/161/161
f 161/161/161 151/151/151 162/162/162
f 151/151/151 152/152/152 162/162/162
f 162/162/162 152/152/152 163/163/163
f 152/152/152 153/153/153 163/163/163
f 163/163/163 153/153/153 164/164/164
f 153/153/153 154/154/154 164/164/164
f 164/164/164 154/154/154 165/165/165
